<svg xmlns="http://www.w3.org/2000/svg" xmlns:xlink="http://www.w3.org/1999/xlink" width="500" zoomAndPan="magnify" viewBox="0 0 375 374.999991" height="500" preserveAspectRatio="xMidYMid meet" version="1.0"><path fill="#d4d4d4" d="M 187.5 116.824219 C 148.542969 116.824219 116.824219 148.542969 116.824219 187.5 C 116.824219 226.457031 148.542969 258.175781 187.5 258.175781 C 226.457031 258.175781 258.175781 226.457031 258.175781 187.5 C 258.175781 148.542969 226.457031 116.824219 187.5 116.824219 Z M 187.5 241.546875 C 157.691406 241.546875 133.453125 217.308594 133.453125 187.5 C 133.453125 157.691406 157.691406 133.453125 187.5 133.453125 C 217.308594 133.453125 241.546875 157.691406 241.546875 187.5 C 241.546875 217.308594 217.308594 241.546875 187.5 241.546875 Z M 195.816406 158.398438 C 195.816406 162.972656 192.074219 166.710938 187.5 166.710938 C 176.027344 166.710938 166.710938 176.027344 166.710938 187.5 C 166.710938 192.074219 162.972656 195.816406 158.398438 195.816406 C 153.824219 195.816406 150.082031 192.074219 150.082031 187.5 C 150.082031 166.878906 166.878906 150.082031 187.5 150.082031 C 192.074219 150.082031 195.816406 153.824219 195.816406 158.398438 Z M 373.460938 183.34375 C 335.128906 116.65625 263.871094 75.25 187.5 75.25 C 111.128906 75.25 39.871094 116.65625 1.539062 183.34375 C 0.0820312 185.921875 0.0820312 189.078125 1.539062 191.617188 C 39.871094 258.34375 111.128906 299.75 187.5 299.75 C 263.871094 299.75 335.128906 258.34375 373.460938 191.65625 C 374.957031 189.078125 374.957031 185.921875 373.460938 183.34375 Z M 187.5 283.121094 C 118.652344 283.121094 54.296875 246.617188 18.375 187.5 C 54.296875 128.382812 118.652344 91.878906 187.5 91.878906 C 256.347656 91.878906 320.703125 128.382812 356.625 187.5 C 320.703125 246.617188 256.347656 283.121094 187.5 283.121094 Z M 187.5 283.121094 " fill-opacity="1" fill-rule="nonzero"/></svg>